REM DIRINDEX 1\2,1\3,1\4
REM DIRNAME cjc151,folder01,folder02,folder03
TITLE ""
FILE "036 036_Lesson 8_TOEFL_3900.mp3" MP3
  TRACK 01 AUDIO
    TITLE "4:cjc151_1549"
    INDEX 01 00:00:00
  TRACK 02 AUDIO
    TITLE "0:"
    INDEX 01 00:01:40
  TRACK 03 AUDIO
    TITLE "2:cjc151_1550"
    INDEX 01 00:02:20
  TRACK 04 AUDIO
    TITLE "0:"
    INDEX 01 00:03:29
  TRACK 05 AUDIO
    TITLE "3:cjc151_1551"
    INDEX 01 00:05:09
  TRACK 06 AUDIO
    TITLE "0:"
    INDEX 01 00:08:07
  TRACK 07 AUDIO
    TITLE "2:cjc151_1552"
    INDEX 01 00:09:59
  TRACK 08 AUDIO
    TITLE "0:"
    INDEX 01 00:10:61
  TRACK 09 AUDIO
    TITLE "3:cjc151_1553"
    INDEX 01 00:12:40
  TRACK 10 AUDIO
    TITLE "0:"
    INDEX 01 00:16:26
  TRACK 11 AUDIO
    TITLE "2:cjc151_1554"
    INDEX 01 00:18:07
  TRACK 12 AUDIO
    TITLE "0:"
    INDEX 01 00:19:24
  TRACK 13 AUDIO
    TITLE "3:cjc151_1555"
    INDEX 01 00:21:00
  TRACK 14 AUDIO
    TITLE "0:"
    INDEX 01 00:25:07
  TRACK 15 AUDIO
    TITLE "2:cjc151_1556"
    INDEX 01 00:26:58
  TRACK 16 AUDIO
    TITLE "0:"
    INDEX 01 00:27:73
  TRACK 17 AUDIO
    TITLE "3:cjc151_1557"
    INDEX 01 00:29:48
  TRACK 18 AUDIO
    TITLE "0:"
    INDEX 01 00:33:15
  TRACK 19 AUDIO
    TITLE "2:cjc151_1558"
    INDEX 01 00:34:65
  TRACK 20 AUDIO
    TITLE "0:"
    INDEX 01 00:37:38
  TRACK 21 AUDIO
    TITLE "3:cjc151_1559"
    INDEX 01 00:39:17
  TRACK 22 AUDIO
    TITLE "0:"
    INDEX 01 00:43:44
  TRACK 23 AUDIO
    TITLE "2:cjc151_1560"
    INDEX 01 00:45:24
  TRACK 24 AUDIO
    TITLE "0:"
    INDEX 01 00:46:21
  TRACK 25 AUDIO
    TITLE "3:cjc151_1561"
    INDEX 01 00:47:74
  TRACK 26 AUDIO
    TITLE "0:"
    INDEX 01 00:51:42
  TRACK 27 AUDIO
    TITLE "2:cjc151_1562"
    INDEX 01 00:53:19
  TRACK 28 AUDIO
    TITLE "0:"
    INDEX 01 00:54:17
  TRACK 29 AUDIO
    TITLE "3:cjc151_1563"
    INDEX 01 00:55:71
  TRACK 30 AUDIO
    TITLE "0:"
    INDEX 01 01:00:33
  TRACK 31 AUDIO
    TITLE "2:cjc151_1564"
    INDEX 01 01:02:12
  TRACK 32 AUDIO
    TITLE "0:"
    INDEX 01 01:03:18
  TRACK 33 AUDIO
    TITLE "3:cjc151_1565"
    INDEX 01 01:04:72
  TRACK 34 AUDIO
    TITLE "0:"
    INDEX 01 01:09:50
  TRACK 35 AUDIO
    TITLE "2:cjc151_1566"
    INDEX 01 01:11:23
  TRACK 36 AUDIO
    TITLE "0:"
    INDEX 01 01:12:24
  TRACK 37 AUDIO
    TITLE "3:cjc151_1567"
    INDEX 01 01:14:02
  TRACK 38 AUDIO
    TITLE "0:"
    INDEX 01 01:17:47
  TRACK 39 AUDIO
    TITLE "2:cjc151_1568"
    INDEX 01 01:19:27
  TRACK 40 AUDIO
    TITLE "0:"
    INDEX 01 01:20:44
  TRACK 41 AUDIO
    TITLE "3:cjc151_1569"
    INDEX 01 01:22:21
  TRACK 42 AUDIO
    TITLE "0:"
    INDEX 01 01:26:29
  TRACK 43 AUDIO
    TITLE "2:cjc151_1570"
    INDEX 01 01:28:06
  TRACK 44 AUDIO
    TITLE "0:"
    INDEX 01 01:29:17
  TRACK 45 AUDIO
    TITLE "3:cjc151_1571"
    INDEX 01 01:30:69
  TRACK 46 AUDIO
    TITLE "0:"
    INDEX 01 01:34:24
  TRACK 47 AUDIO
    TITLE "2:cjc151_1572"
    INDEX 01 01:36:03
  TRACK 48 AUDIO
    TITLE "0:"
    INDEX 01 01:37:13
  TRACK 49 AUDIO
    TITLE "3:cjc151_1573"
    INDEX 01 01:38:67
  TRACK 50 AUDIO
    TITLE "0:"
    INDEX 01 01:43:05
  TRACK 51 AUDIO
    TITLE "2:cjc151_1574"
    INDEX 01 01:44:58
  TRACK 52 AUDIO
    TITLE "0:"
    INDEX 01 01:45:57
  TRACK 53 AUDIO
    TITLE "3:cjc151_1575"
    INDEX 01 01:47:39
  TRACK 54 AUDIO
    TITLE "0:"
    INDEX 01 01:51:03
  TRACK 55 AUDIO
    TITLE "2:cjc151_1576"
    INDEX 01 01:52:59
  TRACK 56 AUDIO
    TITLE "0:"
    INDEX 01 01:53:61
  TRACK 57 AUDIO
    TITLE "3:cjc151_1577"
    INDEX 01 01:55:40
  TRACK 58 AUDIO
    TITLE "0:"
    INDEX 01 01:59:03
  TRACK 59 AUDIO
    TITLE "2:cjc151_1578"
    INDEX 01 02:00:55
  TRACK 60 AUDIO
    TITLE "0:"
    INDEX 01 02:01:60
  TRACK 61 AUDIO
    TITLE "3:cjc151_1579"
    INDEX 01 02:03:38
  TRACK 62 AUDIO
    TITLE "0:"
    INDEX 01 02:06:69
  TRACK 63 AUDIO
    TITLE "2:cjc151_1580"
    INDEX 01 02:08:50
  TRACK 64 AUDIO
    TITLE "0:"
    INDEX 01 02:10:08
  TRACK 65 AUDIO
    TITLE "3:cjc151_1581"
    INDEX 01 02:11:63
  TRACK 66 AUDIO
    TITLE "0:"
    INDEX 01 02:16:05
  TRACK 67 AUDIO
    TITLE "2:cjc151_1582"
    INDEX 01 02:17:59
  TRACK 68 AUDIO
    TITLE "0:"
    INDEX 01 02:19:01
  TRACK 69 AUDIO
    TITLE "3:cjc151_1583"
    INDEX 01 02:20:58
  TRACK 70 AUDIO
    TITLE "0:"
    INDEX 01 02:24:61
  TRACK 71 AUDIO
    TITLE "2:cjc151_1584"
    INDEX 01 02:26:41
  TRACK 72 AUDIO
    TITLE "0:"
    INDEX 01 02:27:60
  TRACK 73 AUDIO
    TITLE "3:cjc151_1585"
    INDEX 01 02:29:31
  TRACK 74 AUDIO
    TITLE "0:"
    INDEX 01 02:33:66
  TRACK 75 AUDIO
    TITLE "2:cjc151_1586"
    INDEX 01 02:35:43
  TRACK 76 AUDIO
    TITLE "0:"
    INDEX 01 02:36:68
  TRACK 77 AUDIO
    TITLE "3:cjc151_1587"
    INDEX 01 02:38:46
  TRACK 78 AUDIO
    TITLE "0:"
    INDEX 01 02:42:36
  TRACK 79 AUDIO
    TITLE "2:cjc151_1588"
    INDEX 01 02:44:15
  TRACK 80 AUDIO
    TITLE "0:"
    INDEX 01 02:45:30
  TRACK 81 AUDIO
    TITLE "3:cjc151_1589"
    INDEX 01 02:47:09
  TRACK 82 AUDIO
    TITLE "0:"
    INDEX 01 02:51:46
  TRACK 83 AUDIO
    TITLE "2:cjc151_1590"
    INDEX 01 02:53:24
  TRACK 84 AUDIO
    TITLE "0:"
    INDEX 01 02:54:37
  TRACK 85 AUDIO
    TITLE "3:cjc151_1591"
    INDEX 01 02:56:16
  TRACK 86 AUDIO
    TITLE "0:"
    INDEX 01 03:00:36
  TRACK 87 AUDIO
    TITLE "2:cjc151_1592"
    INDEX 01 03:02:11
  TRACK 88 AUDIO
    TITLE "0:"
    INDEX 01 03:03:18
  TRACK 89 AUDIO
    TITLE "3:cjc151_1593"
    INDEX 01 03:05:03
  TRACK 90 AUDIO
    TITLE "0:"
    INDEX 01 03:09:31
